<svg xmlns="http://www.w3.org/2000/svg" viewBox="0 0 128 128" fill="none">
  <defs>
    <linearGradient id="petalBlue" x1="30" y1="18" x2="100" y2="112" gradientUnits="userSpaceOnUse">
      <stop stop-color="#97B3C8" />
      <stop offset="0.42" stop-color="#4F7E9F" />
      <stop offset="1" stop-color="#284D6A" />
    </linearGradient>
    <linearGradient id="petalSteel" x1="96" y1="22" x2="32" y2="108" gradientUnits="userSpaceOnUse">
      <stop stop-color="#B7C0C7" />
      <stop offset="0.48" stop-color="#7E8D96" />
      <stop offset="1" stop-color="#566771" />
    </linearGradient>
    <radialGradient id="coreGlow" cx="0" cy="0" r="1" gradientUnits="userSpaceOnUse" gradientTransform="translate(64 64) rotate(90) scale(25)">
      <stop stop-color="#FFFFFF" />
      <stop offset="0.36" stop-color="#FDFEFF" />
      <stop offset="0.64" stop-color="#D8E8F4" stop-opacity="0.96" />
      <stop offset="1" stop-color="#325E7E" stop-opacity="0.2" />
    </radialGradient>
    <filter id="flare" x="42" y="42" width="44" height="44" filterUnits="userSpaceOnUse" color-interpolation-filters="sRGB">
      <feFlood flood-opacity="0" result="BackgroundImageFix" />
      <feGaussianBlur stdDeviation="2.4" />
    </filter>
    <path
      id="petal"
      d="M64 17C71 17 79 18 84 21L78 42C87 45 95 50 100 58L82 67C83 76 81 86 76 93L58 83C51 87 42 89 34 88L38 69C31 64 26 56 24 47L43 45C47 35 55 25 64 17Z"
    />
    <path
      id="petalInner"
      d="M64 34C69 34 74 35 78 37L74 50C80 52 85 56 88 61L75 67C75 73 73 79 69 84L56 77C51 80 45 81 39 80L42 66C37 62 34 57 32 51L46 50C49 43 56 37 64 34Z"
    />
  </defs>

  <g opacity="0.98">
    <g transform="rotate(0 64 64)">
      <use href="#petal" fill="url(#petalBlue)" />
      <use href="#petalInner" fill="none" stroke="url(#petalSteel)" stroke-width="3.5" />
    </g>
    <g transform="rotate(60 64 64)">
      <use href="#petal" fill="url(#petalSteel)" />
      <use href="#petalInner" fill="none" stroke="url(#petalBlue)" stroke-width="3.5" />
    </g>
    <g transform="rotate(120 64 64)">
      <use href="#petal" fill="url(#petalBlue)" />
      <use href="#petalInner" fill="none" stroke="url(#petalSteel)" stroke-width="3.5" />
    </g>
    <g transform="rotate(180 64 64)">
      <use href="#petal" fill="url(#petalSteel)" />
      <use href="#petalInner" fill="none" stroke="url(#petalBlue)" stroke-width="3.5" />
    </g>
    <g transform="rotate(240 64 64)">
      <use href="#petal" fill="url(#petalBlue)" />
      <use href="#petalInner" fill="none" stroke="url(#petalSteel)" stroke-width="3.5" />
    </g>
    <g transform="rotate(300 64 64)">
      <use href="#petal" fill="url(#petalSteel)" />
      <use href="#petalInner" fill="none" stroke="url(#petalBlue)" stroke-width="3.5" />
    </g>
  </g>

  <circle cx="64" cy="64" r="16" fill="url(#coreGlow)" />
  <g fill="#FFFFFF" filter="url(#flare)">
    <path d="M64 46l2.8 11.2L78 60l-11.2 2.8L64 74l-2.8-11.2L50 60l11.2-2.8L64 46Z" />
  </g>
  <g fill="#FFFFFF">
    <path d="M64 42l3.8 15.2L83 61l-15.2 3.8L64 80l-3.8-15.2L45 61l15.2-3.8L64 42Z" />
  </g>
</svg>
