<svg xmlns="http://www.w3.org/2000/svg" viewBox="0 0 128 128" fill="none">
  <defs>
    <linearGradient id="ribbonBlue" x1="34" y1="18" x2="100" y2="110" gradientUnits="userSpaceOnUse">
      <stop stop-color="#9FB5C6" />
      <stop offset="0.45" stop-color="#5A84A2" />
      <stop offset="1" stop-color="#294D69" />
    </linearGradient>
    <linearGradient id="ribbonSteel" x1="95" y1="22" x2="30" y2="106" gradientUnits="userSpaceOnUse">
      <stop stop-color="#C6CDD2" />
      <stop offset="0.42" stop-color="#8797A0" />
      <stop offset="1" stop-color="#5C6C76" />
    </linearGradient>
    <radialGradient id="coreGlow" cx="0" cy="0" r="1" gradientUnits="userSpaceOnUse" gradientTransform="translate(64 64) rotate(90) scale(24)">
      <stop stop-color="#FFFFFF" />
      <stop offset="0.38" stop-color="#FCFEFF" />
      <stop offset="0.68" stop-color="#D5E5F1" stop-opacity="0.95" />
      <stop offset="1" stop-color="#2F5C7D" stop-opacity="0.16" />
    </radialGradient>
    <filter id="glow" x="36" y="36" width="56" height="56" filterUnits="userSpaceOnUse" color-interpolation-filters="sRGB">
      <feFlood flood-opacity="0" result="BackgroundImageFix" />
      <feGaussianBlur stdDeviation="4" />
    </filter>
    <path
      id="outerRibbon"
      d="M64 10C71 10 77 11 82 14L77 31C83 33 88 36 92 41L106 35C110 40 113 46 114 52L99 59C100 65 100 70 98 75L83 71C80 76 75 80 69 84L71 99C66 101 60 101 55 100L52 84C46 82 41 78 37 73L23 78C19 73 16 68 15 61L30 56C30 50 31 45 34 40L22 30C26 25 31 21 37 18L48 29C53 26 58 24 63 24L64 10Z"
    />
    <path
      id="innerPetal"
      d="M64 40C68 40 73 44 75 49C74 57 69 62 64 66C59 62 54 57 53 49C55 44 60 40 64 40Z"
    />
  </defs>

  <g opacity="0.98">
    <g transform="rotate(0 64 64)">
      <use href="#outerRibbon" fill="url(#ribbonBlue)" />
      <use href="#outerRibbon" fill="none" stroke="#E3E7EA" stroke-width="1.6" />
    </g>
    <g transform="rotate(60 64 64)">
      <use href="#outerRibbon" fill="url(#ribbonSteel)" />
      <use href="#outerRibbon" fill="none" stroke="#E7ECEF" stroke-width="1.6" />
    </g>
    <g transform="rotate(120 64 64)">
      <use href="#outerRibbon" fill="url(#ribbonBlue)" />
      <use href="#outerRibbon" fill="none" stroke="#E3E7EA" stroke-width="1.6" />
    </g>
    <g transform="rotate(180 64 64)">
      <use href="#outerRibbon" fill="url(#ribbonSteel)" />
      <use href="#outerRibbon" fill="none" stroke="#E7ECEF" stroke-width="1.6" />
    </g>
    <g transform="rotate(240 64 64)">
      <use href="#outerRibbon" fill="url(#ribbonBlue)" />
      <use href="#outerRibbon" fill="none" stroke="#E3E7EA" stroke-width="1.6" />
    </g>
    <g transform="rotate(300 64 64)">
      <use href="#outerRibbon" fill="url(#ribbonSteel)" />
      <use href="#outerRibbon" fill="none" stroke="#E7ECEF" stroke-width="1.6" />
    </g>
  </g>

  <g opacity="0.95">
    <g transform="rotate(0 64 64)">
      <use href="#innerPetal" fill="#315D7E" />
    </g>
    <g transform="rotate(60 64 64)">
      <use href="#innerPetal" fill="#466F8E" />
    </g>
    <g transform="rotate(120 64 64)">
      <use href="#innerPetal" fill="#315D7E" />
    </g>
    <g transform="rotate(180 64 64)">
      <use href="#innerPetal" fill="#466F8E" />
    </g>
    <g transform="rotate(240 64 64)">
      <use href="#innerPetal" fill="#315D7E" />
    </g>
    <g transform="rotate(300 64 64)">
      <use href="#innerPetal" fill="#466F8E" />
    </g>
  </g>

  <circle cx="64" cy="64" r="14" fill="url(#coreGlow)" />
  <circle cx="64" cy="64" r="9" fill="#FFFFFF" filter="url(#glow)" />
  <g fill="#FFFFFF">
    <path d="M64 41l4 17 17 4-17 4-4 17-4-17-17-4 17-4 4-17Z" />
    <path d="M83 45l-11 13 16-5-5-8ZM45 83l13-11-5 16-8-5ZM45 41l11 13-16-5 5-8ZM83 83 72 70l16 5-5 8Z" opacity=".55" />
  </g>
</svg>
