<svg xmlns="http://www.w3.org/2000/svg" viewBox="0 0 128 128" fill="none">
  <defs>
    <linearGradient id="orbitBlue" x1="24" y1="20" x2="104" y2="108" gradientUnits="userSpaceOnUse">
      <stop stop-color="#5CA1D4" />
      <stop offset="1" stop-color="#1F5B87" />
    </linearGradient>
    <linearGradient id="orbitSteel" x1="106" y1="26" x2="30" y2="114" gradientUnits="userSpaceOnUse">
      <stop stop-color="#AAB4C0" />
      <stop offset="1" stop-color="#586879" />
    </linearGradient>
    <radialGradient id="coreGlow" cx="0" cy="0" r="1" gradientUnits="userSpaceOnUse" gradientTransform="translate(64 64) rotate(90) scale(26)">
      <stop stop-color="#FFFFFF" />
      <stop offset="0.55" stop-color="#A8D3F4" stop-opacity="0.94" />
      <stop offset="1" stop-color="#2D6F9F" stop-opacity="0.18" />
    </radialGradient>
    <filter id="shine" x="36" y="36" width="56" height="56" filterUnits="userSpaceOnUse" color-interpolation-filters="sRGB">
      <feFlood flood-opacity="0" result="BackgroundImageFix" />
      <feGaussianBlur in="SourceGraphic" stdDeviation="4" />
    </filter>
  </defs>

  <path d="M64 8l9 10H55l9-10Z" fill="#6E7C8A" />
  <path d="M120 64l-10 9V55l10 9Z" fill="#2D6F9F" />
  <path d="M64 120l-9-10h18l-9 10Z" fill="#6E7C8A" />
  <path d="M8 64l10-9v18L8 64Z" fill="#6E7C8A" />

  <g stroke-linecap="round" stroke-width="11.5">
    <ellipse cx="64" cy="64" rx="45" ry="19" transform="rotate(45 64 64)" stroke="url(#orbitBlue)" />
    <ellipse cx="64" cy="64" rx="45" ry="19" transform="rotate(-45 64 64)" stroke="url(#orbitSteel)" />
    <ellipse cx="64" cy="64" rx="45" ry="19" transform="rotate(135 64 64)" stroke="url(#orbitBlue)" />
    <ellipse cx="64" cy="64" rx="45" ry="19" transform="rotate(-135 64 64)" stroke="url(#orbitSteel)" />
  </g>

  <circle cx="64" cy="64" r="25" fill="url(#coreGlow)" />
  <circle cx="64" cy="64" r="11" fill="#F8FCFF" />
  <circle cx="64" cy="64" r="11" fill="#F8FCFF" filter="url(#shine)" />
</svg>
