<svg xmlns="http://www.w3.org/2000/svg" width="1200" height="630" viewBox="0 0 1200 630" fill="none">
  <defs>
    <linearGradient id="bg" x1="90" y1="40" x2="1054" y2="580" gradientUnits="userSpaceOnUse">
      <stop stop-color="#F4F8FC" />
      <stop offset="1" stop-color="#DCE7F1" />
    </linearGradient>
    <radialGradient id="halo" cx="0" cy="0" r="1" gradientUnits="userSpaceOnUse" gradientTransform="translate(328 260) rotate(90) scale(180)">
      <stop stop-color="#FFFFFF" />
      <stop offset="0.45" stop-color="#D9E9F5" stop-opacity="0.92" />
      <stop offset="1" stop-color="#2F5C7D" stop-opacity="0" />
    </radialGradient>
    <linearGradient id="ribbonBlue" x1="34" y1="18" x2="100" y2="110" gradientUnits="userSpaceOnUse">
      <stop stop-color="#9FB5C6" />
      <stop offset="0.45" stop-color="#5A84A2" />
      <stop offset="1" stop-color="#294D69" />
    </linearGradient>
    <linearGradient id="ribbonSteel" x1="95" y1="22" x2="30" y2="106" gradientUnits="userSpaceOnUse">
      <stop stop-color="#C6CDD2" />
      <stop offset="0.42" stop-color="#8797A0" />
      <stop offset="1" stop-color="#5C6C76" />
    </linearGradient>
    <path
      id="outerRibbon"
      d="M64 10C71 10 77 11 82 14L77 31C83 33 88 36 92 41L106 35C110 40 113 46 114 52L99 59C100 65 100 70 98 75L83 71C80 76 75 80 69 84L71 99C66 101 60 101 55 100L52 84C46 82 41 78 37 73L23 78C19 73 16 68 15 61L30 56C30 50 31 45 34 40L22 30C26 25 31 21 37 18L48 29C53 26 58 24 63 24L64 10Z"
    />
    <path
      id="innerPetal"
      d="M64 40C68 40 73 44 75 49C74 57 69 62 64 66C59 62 54 57 53 49C55 44 60 40 64 40Z"
    />
  </defs>

  <rect width="1200" height="630" rx="36" fill="url(#bg)" />
  <circle cx="328" cy="260" r="180" fill="url(#halo)" />

  <g transform="translate(200 126) scale(2)">
    <g opacity="0.98">
      <g transform="rotate(0 64 64)">
        <use href="#outerRibbon" fill="url(#ribbonBlue)" />
        <use href="#outerRibbon" fill="none" stroke="#E3E7EA" stroke-width="1.6" />
      </g>
      <g transform="rotate(60 64 64)">
        <use href="#outerRibbon" fill="url(#ribbonSteel)" />
        <use href="#outerRibbon" fill="none" stroke="#E7ECEF" stroke-width="1.6" />
      </g>
      <g transform="rotate(120 64 64)">
        <use href="#outerRibbon" fill="url(#ribbonBlue)" />
        <use href="#outerRibbon" fill="none" stroke="#E3E7EA" stroke-width="1.6" />
      </g>
      <g transform="rotate(180 64 64)">
        <use href="#outerRibbon" fill="url(#ribbonSteel)" />
        <use href="#outerRibbon" fill="none" stroke="#E7ECEF" stroke-width="1.6" />
      </g>
      <g transform="rotate(240 64 64)">
        <use href="#outerRibbon" fill="url(#ribbonBlue)" />
        <use href="#outerRibbon" fill="none" stroke="#E3E7EA" stroke-width="1.6" />
      </g>
      <g transform="rotate(300 64 64)">
        <use href="#outerRibbon" fill="url(#ribbonSteel)" />
        <use href="#outerRibbon" fill="none" stroke="#E7ECEF" stroke-width="1.6" />
      </g>
    </g>
    <g opacity="0.95">
      <g transform="rotate(0 64 64)">
        <use href="#innerPetal" fill="#315D7E" />
      </g>
      <g transform="rotate(60 64 64)">
        <use href="#innerPetal" fill="#466F8E" />
      </g>
      <g transform="rotate(120 64 64)">
        <use href="#innerPetal" fill="#315D7E" />
      </g>
      <g transform="rotate(180 64 64)">
        <use href="#innerPetal" fill="#466F8E" />
      </g>
      <g transform="rotate(240 64 64)">
        <use href="#innerPetal" fill="#315D7E" />
      </g>
      <g transform="rotate(300 64 64)">
        <use href="#innerPetal" fill="#466F8E" />
      </g>
    </g>
    <circle cx="64" cy="64" r="14" fill="#FFFFFF" />
    <path d="M64 41l4 17 17 4-17 4-4 17-4-17-17-4 17-4 4-17Z" fill="#FFFFFF" />
  </g>

  <g fill="#12314B">
    <text x="520" y="238" font-size="70" font-family="'IBM Plex Sans','Segoe UI',sans-serif" font-weight="700">芯汇 ICCoreHub</text>
    <text x="520" y="318" font-size="34" font-family="'IBM Plex Sans','Segoe UI',sans-serif" font-weight="500">全网IC芯片纯信息撮合平台</text>
    <text x="520" y="368" font-size="34" font-family="'IBM Plex Sans','Segoe UI',sans-serif" font-weight="500">AI极速BOM解析与现货搜索</text>
    <text x="520" y="454" font-size="24" font-family="'IBM Plex Sans','Segoe UI',sans-serif" fill="#506376">ICCoreHub.com</text>
  </g>
</svg>
